<svg xmlns="http://www.w3.org/2000/svg" viewBox="0 0 740.43004 195.14348"><defs><style>.a{fill:#fff;}</style></defs><path class="a" d="M443.06017,77.11345a10.37479,10.37479,0,0,0-1.03.99A60.45586,60.45586,0,0,0,425.87,117.50359c-3.43994,54.08984-33.73,68.01977-51.47,71.5a16.429,16.429,0,0,1-6.81982-.08008l-.25-.04c-2.89014-.8-4.64014-1.82007-5.19019-3.05982-.87988-1.98022.87012-5.43017,2.90991-9.44018,1.05-2.05982,2.23023-4.3999,3.22022-6.86987,9.21-22.88013-2.82007-49.13013-8.42017-59.3501a3.70178,3.70178,0,0,0-3.26-1.84h-.02978a3.73383,3.73383,0,0,0-3.29,1.84c-1.64014,3-3.13013,6.05-4.42017,9.06006-4.1499,9.54992-8.71,24.02-6.93994,38.65991a45.4835,45.4835,0,0,0,2.90991,11.63013c.96021,2.37988,2.07007,4.56,3.15015,6.67993,1.99,3.8999,3.86987,7.57983,2.95,9.63012-.55,1.23975-2.26,2.25977-5.08008,3.04981l-.27978.05a16.70368,16.70368,0,0,1-6.84009.08008,59.90247,59.90247,0,0,1-17.65015-6.31006c-9.5498-5.24-17.25976-13.21-22.92993-23.68994-7.71-14.25-10.17993-30.44007-10.88989-41.46009a61.12975,61.12975,0,0,0-9.39014-30.63,61.85149,61.85149,0,0,0-6.77-8.81006,11.6288,11.6288,0,0,0-1.00976-.97c-3.66016-3.18994-9.78028-8.53-9.1001-11.84,0-.01,0-.01.01-.02a4.25623,4.25623,0,0,1,2.09985-2.48.0098.0098,0,0,1,.01-.01,18.75758,18.75758,0,0,1,4.17017-1.84,14.0261,14.0261,0,0,1,1.58984-.42005,80.96923,80.96923,0,0,1,14.06006-1.62c.62012-.03,1.24-.04,1.87988-.03.46021-.01.9502,0,1.48023.02.46,0,.91992.01,1.42993.04,15.10986.38,27.71,3.84,37.47,10.3l2.13989,1.41992.8501-2.41992c1.83008-5.19007,3.8501-10.70008,6.02-16.37012,3-7.79993,12.41992-23.90991,22.37012-23.90991,9.98,0,19.40991,16.11,22.40991,23.8999,2.3999,6.31006,4.6499,12.48,6.67993,18.34009l.8501,2.43994,2.1499-1.42993c17-11.31006,35.18994-14.81006,55.59009-10.68006a13.75135,13.75135,0,0,1,1.60986.42005,18.68159,18.68159,0,0,1,4.16016,1.84.0098.0098,0,0,1,.01.01,4.34992,4.34992,0,0,1,2.11987,2.49v.01C452.81993,68.59343,446.73009,73.9135,443.06017,77.11345Z"/><path class="a" d="M317.97008,184.64348c-.26.1499-.52.3-.78.43017-11.21,6.2898-25.35986,9.44-42.25,9.44-35.5,0-63.12988-19.62012-63.12988-62.65015,0-33.57,14.95-58.68994,45.2998-67.56995a1.2944,1.2944,0,0,0-.0498.19007c-.48,2.31994.34985,4.63989,1.84985,6.87988-.01.01,0,.02.01.03,1.24,3.49,5.45,7.25,9.18994,10.51a8.84308,8.84308,0,0,1,.84009.79,58.587,58.587,0,0,1,6.34985,8.28c-13.7998,1.80993-20.91992,13.74-20.91992,35.98,0,21.53,5.3501,38.3999,25.07007,38.3999,6.48,0,11.48-1.47,15.24-4.31006q.12012-.08972.24-.17993A57.81113,57.81113,0,0,0,317.97008,184.64348Z"/><path class="a" d="M501.29991,131.86345c0,43.03-27.62988,62.65015-63.12988,62.65015-16.87012,0-31.02-3.15015-42.22-9.43018-.27-.12988-.54-.29-.8-.43994a57.848,57.848,0,0,0,23.03-23.78q.12012.09009.24.17993c3.77,2.84009,8.76,4.31006,15.24,4.31006,19.72,0,25.08008-16.86987,25.08008-38.3999,0-22.24-7.12012-34.17005-20.92993-35.98a58.6282,58.6282,0,0,1,6.35986-8.28,7.69537,7.69537,0,0,1,.83008-.79c3.73-3.25,7.90991-6.98,9.16992-10.46,1.52-2.27,2.37012-4.61011,1.87988-6.96a1.2944,1.2944,0,0,0-.0498-.19007C486.35,73.17351,501.29991,98.2935,501.29991,131.86345Z"/><path class="a" d="M109.78014,78.98357c-8.29-8.79-20.19019-13.24-35.37012-13.24a70.38522,70.38522,0,0,0-14.38989,1.46,19.59815,19.59815,0,0,1-16.41016-3.96A19.17475,19.17475,0,0,1,36.50011,48.2935v-7.78c0-8.18994-.05-16.7799-.68994-23.89a15.38164,15.38164,0,0,0-15.28-14.05994c-.51,0-1.02.02991-1.54.08l-5.14014.51a15.31952,15.31952,0,0,0-13.84985,15.29v139.47c-.04,16.01,11.03,30.04,26.31006,33.37012A114.78154,114.78154,0,0,0,50.38,193.77336c47.62012,0,72.79-25.07983,72.79-72.51977C123.17,102.63347,118.66,88.4135,109.78014,78.98357Zm-54,89.35986h-.21021a19.30506,19.30506,0,0,1-19.06982-19.36987V110.58342a19.44936,19.44936,0,0,1,16.46-19.1499,53.98129,53.98129,0,0,1,7.95-.53c15.92017,0,24.67993,12.31006,24.67993,34.67C85.59,153.95354,75.56017,168.34343,55.78014,168.34343Z"/><path class="a" d="M196.43,161.19353a11.61481,11.61481,0,0,0-7.06006-3.90015,11.576,11.576,0,0,1-9.84985-11.45V27.02348a88.42876,88.42876,0,0,0-1.6001-17.91A11.54057,11.54057,0,0,0,165.51012.05351L147.88,1.72356a11.57854,11.57854,0,0,0-10.48,11.53v144.72c0,26.46,9.72,35.90991,35.37012,35.90991a79.47,79.47,0,0,0,17.65991-2.28,11.61149,11.61149,0,0,0,8.8-11.25V168.74358A11.58153,11.58153,0,0,0,196.43,161.19353Z"/><path class="a" d="M738.4901,162.54338a8.36931,8.36931,0,0,0-4.92993-2.87988,8.38368,8.38368,0,0,1-6.88013-8.25v-41.54c0-31.68994-10.36987-49.08-38.98-49.08-15.02,0-27.54,3.77-36.97,11.87a8.39527,8.39527,0,0,1-11.6499-.65991C632.35,64.74358,621.81993,60.7935,606.36,60.7935c-12.81982,0-25.10986,3.78992-35.26,11.80994a8.41015,8.41015,0,0,1-11.61987-1.18994c-5.84009-6.79-14.91016-9.22-25.76-9.22a65.144,65.144,0,0,0-15.65015,2.21,8.35971,8.35971,0,0,0-6.23,8.1001V90.30351a8.40127,8.40127,0,0,0,6.17017,8.09l1.97.54a8.38965,8.38965,0,0,1,6.16992,8.07995v52.79016c0,9.90992.45,19.36988,2.1499,26.34986a8.40429,8.40429,0,0,0,8.17017,6.46H560.11a8.38618,8.38618,0,0,0,8.39014-8.37988V116.33342c0-3.49-.1001-6.37988-.3501-8.91992a8.24331,8.24331,0,0,1,4.68018-8.29,40.83887,40.83887,0,0,1,16.41992-3.54993c12.61987,0,17.38989,6.45,17.38989,21.88v46.83984c0,9.54.54,16.25,1.72,21.71021a8.381,8.381,0,0,0,8.2002,6.60986h23.21a8.37758,8.37758,0,0,0,8.37988-8.37988V121.65349c0-4.3999,0-10.1-.19995-14.63a8.28877,8.28877,0,0,1,4.65991-7.87,35.18431,35.18431,0,0,1,15.17017-3.02c13.47,0,17.38989,7.57007,17.38989,23.56006v45.43994c0,24.40015,12.91016,30.01,29.73,30.01,5.99,0,13.62012-.33008,20.01-2.6001a8.361,8.361,0,0,0,5.52-7.88989v-16.74A8.3533,8.3533,0,0,0,738.4901,162.54338Z"/></svg>