<svg xmlns="http://www.w3.org/2000/svg" viewBox="0 0 754.71948 191.05599"><defs><style>.a{fill:#f0f0f0;}.b{fill:#8b63e1;}</style></defs><path class="a" d="M7.28467,75.44678c-.36426-1.90943-.70569-3.69947-1.03015-5.40015-.32434-1.70044-.63172-3.31152-.92762-4.863-.29589-1.55127-.58044-3.043-.85937-4.50488-.27881-1.46191-.552-2.894-.8252-4.32617-.27319-1.43189-.54638-2.864-.82519-4.32593-.27893-1.46191-.56348-2.95361-.85938-4.50513-.29589-1.55127-.60327-3.16235-.92761-4.863C.70569,40.958.36426,39.168,0,37.25854c1.79541-.34252,3.292-.62573,4.689-.88891,1.39686-.26294,2.69422-.5061,4.09156-.76611,1.39734-.26026,2.89465-.53785,4.69177-.86792.346,1.88208.67017,3.64648.97815,5.32275.3081,1.67627.59985,3.2644.88086,4.79346.281,1.52929.55127,2.99975.816,4.44067s.52417,2.85254.78357,4.26416.5188,2.823.78357,4.26416c.26477,1.44092.53491,2.91138.81592,4.44043.281,1.5293.57287,3.11743.88085,4.79346.308,1.67627.63233,3.44092.97815,5.323a12.57129,12.57129,0,0,0,1.64637,4.52319A7.28433,7.28433,0,0,0,24.77734,79.479a8.97,8.97,0,0,0,3.63807.97022,17.92042,17.92042,0,0,0,4.34021-.30078,14.132,14.132,0,0,0,4.00756-1.303,9.09544,9.09544,0,0,0,2.90186-2.2937,7.81488,7.81488,0,0,0,1.58093-3.26,10.68685,10.68685,0,0,0,.03992-4.19995c-.32947-1.907-.63831-3.69483-.93176-5.39331s-.57154-3.30738-.83924-4.85694c-.2677-1.54931-.52514-3.0393-.77746-4.49926-.2522-1.46021-.49939-2.89039-.74646-4.32056-.2472-1.43042-.49427-2.8606-.74659-4.32056-.25219-1.4602-.50964-2.94995-.77734-4.49951-.26782-1.54932-.54578-3.15845-.83923-4.85669-.29346-1.69849-.60242-3.48633-.93189-5.39331,1.79969-.311,3.29981-.56787,4.7-.8064,1.40027-.23852,2.70057-.45874,4.1012-.69433,1.40051-.23584,2.90125-.48706,4.70251-.78565.29212,1.76123.568,3.42481.8313,5.01221.26319,1.58765.5138,3.09888.7555,4.55591.24157,1.45679.47424,2.85937.70141,4.22949.22718,1.36987.449,2.70728.669,4.03394.22,1.32641.43811,2.64209.65808,3.9685s.44177,2.66382.66894,4.03394c.2273,1.36987.45984,2.77246.70142,4.22949.2417,1.457.49231,2.96826.75549,4.55566.26331,1.58741.53919,3.251.8313,5.01246a17.94335,17.94335,0,0,1,.17969,4.6665,15.77261,15.77261,0,0,1-1.0094,4.24731,16.2015,16.2015,0,0,1-2.10571,3.7771,19.00345,19.00345,0,0,1-3.11243,3.25782,24.05464,24.05464,0,0,1-4.03186,2.68969,31.165,31.165,0,0,1-4.86633,2.07447,40.02994,40.02994,0,0,1-5.61853,1.41137,52.04962,52.04962,0,0,1-5.46668.69922,34.21089,34.21089,0,0,1-4.86181.01978,23.07438,23.07438,0,0,1-4.26087-.68775,16.94,16.94,0,0,1-3.66247-1.42309,14.5563,14.5563,0,0,1-3.06543-2.18579,15.42761,15.42761,0,0,1-2.46826-2.9751,19.78971,19.78971,0,0,1-1.86951-3.79029A28.5547,28.5547,0,0,1,7.28467,75.44678Z"/><path class="a" d="M60.66833,40.46118c1.4524-.23315,2.66285-.426,3.79261-.60522,1.12988-.1792,2.17907-.34473,3.3092-.522,1.13-.17724,2.34094-.36645,3.79419-.59155.34656.99536.6062,1.742.86572,2.48853.2594.74682.5188,1.49341.86438,2.489a16.92974,16.92974,0,0,1,2.26038-3.105A16.1228,16.1228,0,0,1,78.4989,38.1062a17.584,17.584,0,0,1,3.64575-1.83838,21.6675,21.6675,0,0,1,4.364-1.0935,21.23365,21.23365,0,0,1,5.21753-.16944,13.73085,13.73085,0,0,1,4.40844,1.16138,11.20585,11.20585,0,0,1,3.50318,2.52856,13.31988,13.31988,0,0,1,2.506,3.93287,21.18821,21.18821,0,0,1,1.42187,5.37548c.27613,1.9795.5293,3.794.767,5.49829.23779,1.70459.46033,3.29908.675,4.83863s.42188,3.02417.629,4.50854c.207,1.48462.41418,2.96924.6289,4.50879s.43726,3.134.675,4.83862c.2378,1.70435.49085,3.5188.767,5.4983-1.70642.238-3.12817.43847-4.45508.6267s-2.55883.36426-3.88537.55518c-1.32666.19067-2.74781.39649-4.45313.64575-.26574-1.81811-.5094-3.48462-.73828-5.05s-.443-3.03-.64966-4.44384c-.20678-1.41407-.406-2.77759-.60534-4.14112s-.39869-2.7268-.60547-4.14087c-.20667-1.41406-.42078-2.87841-.64966-4.44409-.22888-1.56543-.47253-3.23193-.73828-5.0498A17.32818,17.32818,0,0,0,89.90894,48.116a5.13423,5.13423,0,0,0-2.13562-2.61353,6.00023,6.00023,0,0,0-3.93311-.50049,8.582,8.582,0,0,0-4.04932,1.69263,7.53262,7.53262,0,0,0-2.83581,7.12622c.28381,1.8501.54407,3.54614.78845,5.13941s.4729,3.08374.69373,4.52294c.2207,1.439.43359,2.82666.64636,4.21436.21289,1.3877.42578,2.77539.64648,4.2146.22071,1.439.44934,2.92944.69373,4.5227s.50451,3.28931.78833,5.13965c-1.69153.25952-3.10083.47779-4.41614.68262s-2.5365.39624-3.85144.60352c-1.31494.20752-2.72375.4309-4.41394.70141-.282-1.76147-.54639-3.41308-.79749-4.98193-.25109-1.56909-.489-3.05542-.71814-4.48682-.22912-1.43115-.44934-2.80737-.66528-4.15625-.21594-1.34863-.42737-2.66992-.63879-3.99121-.21155-1.321-.423-2.64233-.63892-3.99121-.21582-1.34863-.43616-2.72485-.66528-4.15625-.229-1.4314-.46692-2.91772-.71814-4.48657-.2511-1.56885-.51538-3.22046-.79736-4.98218-.44385-1.57373-.7771-2.75415-1.1106-3.93433C61.44727,43.21509,61.11365,42.03491,60.66833,40.46118Z"/><path class="a" d="M113.023,55.947a28.93134,28.93134,0,0,1-.254-4.69775,26.52888,26.52888,0,0,1,.52344-4.57251,24.03363,24.03363,0,0,1,1.313-4.324,21.98049,21.98049,0,0,1,2.11352-3.95141,20.8796,20.8796,0,0,1,2.92346-3.45337,21.14764,21.14764,0,0,1,3.74109-2.8291,23.26538,23.26538,0,0,1,4.56372-2.07788,27.75177,27.75177,0,0,1,5.38843-1.198,25.14313,25.14313,0,0,1,5.35034-.124,16.43178,16.43178,0,0,1,4.52381,1.02759,11.643,11.643,0,0,1,3.55835,2.16382A10.614,10.614,0,0,1,149.2262,35.196a13.56762,13.56762,0,0,1,1.22766,4.3938,13.13455,13.13455,0,0,1-.32556,4.99463,11.817,11.817,0,0,1-1.98694,4.02295,15.65489,15.65489,0,0,1-3.25989,3.16651,24.52691,24.52691,0,0,1-4.14929,2.4248,38.48545,38.48545,0,0,1-4.658,1.79736c-1.59534.5066-3.212.92749-4.787,1.27979-1.575.35254-3.108.63672-4.53577.86987a11.76606,11.76606,0,0,0,1.34046,3.24146,9.44945,9.44945,0,0,0,2.34448,2.624,9.1787,9.1787,0,0,0,3.42737,1.60864,12.79167,12.79167,0,0,0,4.59412.19678,19.22525,19.22525,0,0,0,4.59533-1.16235,22.1821,22.1821,0,0,0,3.74036-1.88111,25.73183,25.73183,0,0,0,2.80823-2.03515c.92724,1.49194,1.62121,2.61133,2.31445,3.7312.69312,1.11987,1.38562,2.24,2.307,3.73413a12.12908,12.12908,0,0,1-1.61756,1.31445,28.28536,28.28536,0,0,1-3.36511,2.0271,33.38807,33.38807,0,0,1-4.95105,2.061,35.20629,35.20629,0,0,1-11.84778,1.68139,24.41989,24.41989,0,0,1-4.73767-.61865A18.96691,18.96691,0,0,1,123.66394,73.23a16.79457,16.79457,0,0,1-3.37-2.19629,17.31214,17.31214,0,0,1-2.72571-2.89087,20.34011,20.34011,0,0,1-2.10535-3.52124,25.87014,25.87014,0,0,1-1.50781-4.08691A33.92951,33.92951,0,0,1,113.023,55.947Zm25.92932-14.73511a4.19438,4.19438,0,0,0-1.69275-3.05786,5.12342,5.12342,0,0,0-3.62805-.72973,9.26075,9.26075,0,0,0-4.03918,1.44506,8.84757,8.84757,0,0,0-2.70813,2.88453,11.96622,11.96622,0,0,0-1.42872,3.90063,16.825,16.825,0,0,0-.206,4.49634,35.904,35.904,0,0,0,4.356-.926,26.14691,26.14691,0,0,0,4.63061-1.73364,11.00637,11.00637,0,0,0,3.56458-2.63647A4.67382,4.67382,0,0,0,138.95227,41.21191Z"/><path class="a" d="M175.38953,25.40894c1.43542-.14649,2.63171-.26709,3.74829-.37915,1.11657-.11182,2.15344-.21485,3.27014-.32471,1.1167-.11011,2.31323-.2273,3.74927-.366.34619,1.21607.60559,2.12842.86474,3.04077s.51819,1.82471.863,3.04126a12.76146,12.76146,0,0,1,2.5752-4.47827,12.35154,12.35154,0,0,1,8.05163-4.06079,20.10753,20.10753,0,0,1,4.15259.0625,14.11785,14.11785,0,0,1,3.6499.89453c-.16089,1.3667-.29455,2.50586-.41907,3.56885s-.23974,2.05005-.36352,3.113c-.12378,1.06323-.25623,2.20214-.41443,3.56909a19.91611,19.91611,0,0,0-3.3064-.81323,14.94286,14.94286,0,0,0-3.60437-.13062,8.25523,8.25523,0,0,0-3.94116,1.34253,6.93871,6.93871,0,0,0-2.43957,2.92529,8.83979,8.83979,0,0,0-.70069,4.113c.17151,1.80615.32862,3.46191.47632,5.01709.14771,1.55542.28577,3.01025.41919,4.415s.262,2.75952.39062,4.114c.12854,1.35474.25721,2.70923.39063,4.114.1333,1.40478.27148,2.85986.41919,4.415.14758,1.55542.30481,3.21094.47632,5.01709-1.7251.16382-3.1626.3025-4.50415.43287-1.34156.13061-2.58728.25293-3.92859.386-1.34131.1333-2.77844.2771-4.50269.45239-.183-1.80078-.35449-3.489-.51745-5.09277s-.31739-3.123-.46607-4.58618c-.14856-1.46289-.2915-2.86987-.43164-4.24854-.14-1.37866-.27734-2.72924-.41455-4.07959-.13721-1.35058-.27441-2.70117-.41443-4.07983-.14013-1.37866-.28308-2.7854-.43176-4.24853-.14856-1.46314-.303-2.98243-.46594-4.58619s-.33448-3.292-.51746-5.09253c-.34192-1.49365-.59863-2.61376-.85559-3.73388C175.99,28.02246,175.73291,26.90234,175.38953,25.40894Z"/><path class="a" d="M209.76489,45.26172a28.95985,28.95985,0,0,1-.02466-4.70459,26.57315,26.57315,0,0,1,.74476-4.54151,24.05442,24.05442,0,0,1,1.52026-4.25439,21.96916,21.96916,0,0,1,2.30066-3.843,20.84113,20.84113,0,0,1,3.08447-3.30591,21.10719,21.10719,0,0,1,3.86975-2.64257,23.19414,23.19414,0,0,1,4.65381-1.85181,27.6758,27.6758,0,0,1,5.434-.93286,25.077,25.077,0,0,1,5.34363.13794,16.41156,16.41156,0,0,1,4.46326,1.2478,11.62724,11.62724,0,0,1,3.4447,2.33545,10.61625,10.61625,0,0,1,2.29248,3.40186,13.58156,13.58156,0,0,1,1.01074,4.44873,13.1474,13.1474,0,0,1-.56812,4.97241,11.821,11.821,0,0,1-2.17846,3.92114,15.63884,15.63884,0,0,1-3.4065,3.00293,24.495,24.495,0,0,1-4.25781,2.219,38.41544,38.41544,0,0,1-4.7345,1.56714c-1.61621.428-3.24951.76905-4.83789,1.044-1.58825.2749-3.13147.48364-4.56714.64673a11.77656,11.77656,0,0,0,1.17945,3.303,9.4445,9.4445,0,0,0,2.21094,2.73584,9.16645,9.16645,0,0,0,3.34069,1.77465,12.77619,12.77619,0,0,0,4.57361.42139,19.19383,19.19383,0,0,0,4.64112-.936,22.11735,22.11735,0,0,0,3.82324-1.696,25.66878,25.66878,0,0,0,2.901-1.89526c.85242,1.53564,1.49023,2.68774,2.1272,3.84008.63708,1.15235,1.27343,2.30494,2.12,3.84229a12.11746,12.11746,0,0,1-1.678,1.23389,28.246,28.246,0,0,1-3.45605,1.8601,33.33264,33.33264,0,0,1-5.04,1.81617,35.11868,35.11868,0,0,1-11.90137,1.09961,24.38461,24.38461,0,0,1-4.69617-.8501,18.9316,18.9316,0,0,1-3.96008-1.63477,16.77857,16.77857,0,0,1-3.25476-2.35864,17.32256,17.32256,0,0,1-2.57812-3.021,20.35234,20.35234,0,0,1-1.92859-3.62011,25.88771,25.88771,0,0,1-1.30506-4.156A33.96012,33.96012,0,0,1,209.76489,45.26172ZM236.34875,31.814a4.19756,4.19756,0,0,0-1.53991-3.1372,5.11373,5.11373,0,0,0-3.58374-.90625,9.236,9.236,0,0,0-4.1,1.2456,8.83681,8.83681,0,0,0-2.84216,2.74854,11.96909,11.96909,0,0,0-1.61511,3.82593,16.84682,16.84682,0,0,0-.42456,4.48071,35.80259,35.80259,0,0,0,4.3905-.71167,26.07338,26.07338,0,0,0,4.70386-1.50488,10.99036,10.99036,0,0,0,3.68457-2.45874A4.67612,4.67612,0,0,0,236.34875,31.814Z"/><path class="a" d="M254.348,18.91577c1.46424-.09155,2.68433-.16626,3.82324-.23535,1.13892-.06885,2.19642-.13208,3.33545-.19922,1.13892-.06689,2.35926-.13794,3.82373-.22143.2483,1.02417.43421,1.79248.62,2.56079.18579.76806.37134,1.53637.61865,2.56079a16.89641,16.89641,0,0,1,2.54309-2.87158,16.07192,16.07192,0,0,1,3.16455-2.21216,17.51562,17.51562,0,0,1,3.79688-1.477,21.58082,21.58082,0,0,1,4.4386-.666,21.11663,21.11663,0,0,1,5.19751.33618,13.68349,13.68349,0,0,1,4.26611,1.582,11.19674,11.19674,0,0,1,3.2356,2.85547,13.33863,13.33863,0,0,1,2.1101,4.157,21.22722,21.22722,0,0,1,.89453,5.48754c.08362,1.99683.16028,3.8274.2323,5.54688s.13941,3.32812.20447,4.8811c.06507,1.55323.12769,3.05078.19043,4.54834.06275,1.49781.12549,2.99536.19055,4.54834.06507,1.55322.13245,3.16162.20435,4.88135.072,1.71948.14868,3.5498.23242,5.54663-1.71777.072-3.149.134-4.485.19312-1.33582.05883-2.5763.115-3.912.17651-1.33582.06177-2.767.12891-4.48425.21216-.089-1.83521-.17041-3.51758-.247-5.09766-.07654-1.58032-.1482-3.05884-.21729-4.48608-.06921-1.42725-.13586-2.80371-.20251-4.18018-.06665-1.37622-.13343-2.75268-.20252-4.17993-.06909-1.42749-.14074-2.90576-.21728-4.48608s-.15808-3.26246-.247-5.09766a17.3774,17.3774,0,0,0-.613-4.21533,5.139,5.139,0,0,0-1.869-2.80786,5.97878,5.97878,0,0,0-3.85742-.87867,8.54747,8.54747,0,0,0-4.18359,1.293,7.53547,7.53547,0,0,0-3.50147,6.81836c.10376,1.8689.19873,3.58228.28809,5.19165.08923,1.60938.17273,3.115.25342,4.56861.08069,1.45385.15844,2.85547.2362,4.25732s.15552,2.80347.23609,4.25732c.08069,1.45362.16418,2.95923.25354,4.56861.08923,1.60937.18432,3.32275.288,5.19165-1.70434.09473-3.12463.17554-4.45019.252-1.32544.07666-2.55628.14893-3.88172.228-1.32532.0791-2.74536.16528-4.44934.27075-.11035-1.78052-.21387-3.45-.31213-5.03589-.09839-1.58569-.19153-3.08813-.28125-4.53491-.0896-1.44678-.17591-2.83789-.26038-4.20117-.08459-1.36328-.16736-2.69873-.25012-4.03443-.08289-1.33544-.16565-2.67089-.25012-4.03417-.0846-1.36329-.17078-2.7544-.2605-4.20118s-.18286-2.94922-.28113-4.53515c-.09839-1.5857-.2019-3.25513-.31225-5.03565-.28907-1.60962-.50635-2.81665-.72376-4.02344C254.85632,21.73193,254.63867,20.5249,254.348,18.91577Z"/><path class="a" d="M304.81494,38.61719a31.85294,31.85294,0,0,1,.30518-5.96167,24.15146,24.15146,0,0,1,1.30273-5.03076,20.27,20.27,0,0,1,2.14832-4.146,19.1296,19.1296,0,0,1,2.83911-3.30688,19.95469,19.95469,0,0,1,3.372-2.51392,22.06269,22.06269,0,0,1,3.74536-1.7666,24.52566,24.52566,0,0,1,3.95862-1.06665,26.26119,26.26119,0,0,1,4.01074-.415,28.83418,28.83418,0,0,1,3.90039.15137,23.23074,23.23074,0,0,1,3.8811.75244,19.6343,19.6343,0,0,1,3.73841,1.49267,18.34386,18.34386,0,0,1,3.47229,2.37158,19.7744,19.7744,0,0,1,3.08264,3.38819c-1.06836.84814-1.9574,1.55591-2.7865,2.217-.829.66089-1.59815,1.27515-2.42566,1.93725-.82739.66211-1.71326,1.37183-2.7749,2.22437a19.1914,19.1914,0,0,0-2.72327-2.66626,11.16536,11.16536,0,0,0-3.04333-1.73291,9.84635,9.84635,0,0,0-7.51917.38794,8.24036,8.24036,0,0,0-3.0188,2.61572,12.05737,12.05737,0,0,0-1.84753,4.26978,22.71947,22.71947,0,0,0-.51136,5.91528,24.72317,24.72317,0,0,0,.55518,4.64941,15.16172,15.16172,0,0,0,1.37061,3.81153,10.00244,10.00244,0,0,0,2.2146,2.846,8.82415,8.82415,0,0,0,3.09008,1.75341,11.7686,11.7686,0,0,0,4.00037.53565,14.67257,14.67257,0,0,0,3.34949-.46729,16.83582,16.83582,0,0,0,3.312-1.26733,27.89622,27.89622,0,0,0,3.50549-2.12988c.98474,1.60449,1.72132,2.80835,2.45691,4.01245s1.47022,2.40869,2.44714,4.01562A22.24929,22.24929,0,0,1,341.04822,57.54a26.425,26.425,0,0,1-3.85449,1.66919,30.11181,30.11181,0,0,1-4.48621,1.15723,33.90814,33.90814,0,0,1-5.0719.51049,30.8059,30.8059,0,0,1-4.891-.24218,23.86633,23.86633,0,0,1-4.37073-.99219,19.61891,19.61891,0,0,1-3.82129-1.73,17.77389,17.77389,0,0,1-3.24133-2.45655,18.1878,18.1878,0,0,1-2.62927-3.17041,20.90747,20.90747,0,0,1-1.983-3.87231,26.16217,26.16217,0,0,1-1.30151-4.56055A34.37081,34.37081,0,0,1,304.81494,38.61719Z"/><path class="a" d="M347.17908,37.29712a32.55815,32.55815,0,0,1,.45532-6.19483,23.73234,23.73234,0,0,1,1.4751-5.09985,19.46782,19.46782,0,0,1,2.32165-4.08789,18.41345,18.41345,0,0,1,2.991-3.15918,19.67942,19.67942,0,0,1,3.48059-2.31372,22.466,22.466,0,0,1,3.78894-1.55176,25.72238,25.72238,0,0,1,3.91516-.87549,28.06908,28.06908,0,0,1,3.85913-.2854,33.28158,33.28158,0,0,1,3.44739.15357,25.83658,25.83658,0,0,1,3.9187.6831,20.00374,20.00374,0,0,1,4.02173,1.4961,16.42531,16.42531,0,0,1,3.755,2.59033,16.18172,16.18172,0,0,1,3.11841,3.9624,20.73813,20.73813,0,0,1,2.11524,5.61109,33.00571,33.00571,0,0,1,.75244,7.53564,35.91445,35.91445,0,0,1-.47766,5.782,27.53885,27.53885,0,0,1-1.30774,4.97754,22.29771,22.29771,0,0,1-2.05127,4.18384,19.618,19.618,0,0,1-2.71057,3.40186,19.08827,19.08827,0,0,1-3.28809,2.63183,20.39367,20.39367,0,0,1-3.78564,1.87354,23.31836,23.31836,0,0,1-4.20471,1.127,27.67365,27.67365,0,0,1-4.54627.39185,28.57185,28.57185,0,0,1-4.536-.31763,21.876,21.876,0,0,1-4.06348-1.01782,17.92236,17.92236,0,0,1-3.55664-1.73072,16.4737,16.4737,0,0,1-3.0144-2.45556,17.467,17.467,0,0,1-2.43518-3.19287,21.10268,21.10268,0,0,1-1.81751-3.94214,27.892,27.892,0,0,1-1.16-4.70264A38.516,38.516,0,0,1,347.17908,37.29712Zm30.00232-.17993a39.26587,39.26587,0,0,0-.42871-6.1814,15.222,15.222,0,0,0-1.40088-4.58325,6.9571,6.9571,0,0,0-2.57019-2.845,7.4182,7.4182,0,0,0-3.93189-.96362,7.21167,7.21167,0,0,0-3.73633.98266,7.49288,7.49288,0,0,0-2.59436,2.71265,13.52607,13.52607,0,0,0-1.49707,4.16357,26.00733,26.00733,0,0,0-.44946,5.3374,49.486,49.486,0,0,0,.34192,5.72046,20.17446,20.17446,0,0,0,1.20837,4.99976,8.25986,8.25986,0,0,0,2.5177,3.532,6.73008,6.73008,0,0,0,4.275,1.32153,7.1349,7.1349,0,0,0,3.76489-.99194,7.31272,7.31272,0,0,0,2.56787-2.813,14.869,14.869,0,0,0,1.46936-4.46A33.19552,33.19552,0,0,0,377.1814,37.11719Z"/><path class="a" d="M398.389,15.08276c1.46618.01343,2.68811.02613,3.82849.03882s2.19934.02515,3.33972.0398c1.14026.0144,2.36218.03076,3.82837.05224.17444,1.03955.305,1.81909.43555,2.59864s.26086,1.55908.43432,2.59863a16.8883,16.8883,0,0,1,2.74036-2.68262,16.05679,16.05679,0,0,1,3.31323-1.98,17.48636,17.48636,0,0,1,3.8916-1.2019,21.56848,21.56848,0,0,1,4.47364-.34693,21.13045,21.13045,0,0,1,5.15942.70679,13.67867,13.67867,0,0,1,4.14148,1.8833,11.19193,11.19193,0,0,1,3.02246,3.07935,13.33936,13.33936,0,0,1,1.807,4.29712,21.22868,21.22868,0,0,1,.49963,5.53759c-.05932,1.99781-.11377,3.82886-.16492,5.54932-.051,1.72021-.09887,3.32935-.145,4.8833-.04626,1.55371-.09082,3.052-.13525,4.55029-.04455,1.49829-.08911,2.99659-.13525,4.5503s-.094,3.16308-.14514,4.8833-.1056,3.55151-.16492,5.54907c-1.718-.051-3.1499-.09155-4.48621-.12817-1.33642-.03663-2.57739-.06934-3.91382-.10352-1.33642-.03394-2.76831-.06909-4.48669-.10889.0426-1.83691.08166-3.52075.11829-5.10254.03662-1.58154.07092-3.06128.104-4.49.03308-1.42846.06506-2.80615.09692-4.18383.032-1.37769.06385-2.75513.09693-4.18384.0332-1.42871.06738-2.9082.10412-4.49.03662-1.58179.07556-3.26563.11817-5.1023a17.36992,17.36992,0,0,0-.31018-4.24829,5.13765,5.13765,0,0,0-1.6637-2.93432,5.97656,5.97656,0,0,0-3.78381-1.15235,8.54147,8.54147,0,0,0-4.26416.99048,7.53567,7.53567,0,0,0-3.97876,6.55054c-.03028,1.87158-.058,3.5874-.084,5.199-.02612,1.61182-.05041,3.11939-.074,4.5752-.02344,1.45581-.04614,2.85937-.06885,4.26318-.02258,1.40381-.04529,2.80737-.06885,4.26318-.02343,1.45582-.04785,2.96338-.07385,4.5752-.026,1.61157-.05371,3.32739-.084,5.199-1.70618-.02758-3.12806-.04834-4.4552-.06689-1.327-.01831-2.55933-.03442-3.88648-.05-1.32715-.01587-2.749-.03174-4.45532-.04809.01721-1.78394.03332-3.45655.0487-5.04541.01526-1.58863.02979-3.094.04383-4.54346s.02746-2.84326.04065-4.209c.01318-1.366.02612-2.70385.03906-4.042.01282-1.33789.02576-2.67578.03894-4.04175.01318-1.36572.02661-2.75952.04065-4.209s.02856-2.95483.04382-4.54346c.01538-1.58886.0315-3.26147.04883-5.04541-.17322-1.626-.30359-2.84546-.43408-4.06494C398.69446,17.92822,398.56372,16.70874,398.389,15.08276Z"/><path class="a" d="M449.38623,45.93506c.06445-1.8374.12561-3.583.1842-5.25513.0586-1.67187.11463-3.27051.16871-4.814s.10632-3.03174.1571-4.48316c.0509-1.45166.10046-2.86645.14941-4.26294.04895-1.39624.09729-2.77441.14563-4.15234.04822-1.37817.09656-2.7561.14551-4.15259s.09851-2.81128.14942-4.26269c.0509-1.45166.103-2.94.1571-4.4834.05408-1.54322.11011-3.14185.1687-4.814.0586-1.67187.11987-3.41748.18421-5.25488,1.783.0625,3.26867.1167,4.65527.16846s2.67419.10107,4.06079.15576c1.38647.05444,2.87207.11426,4.65466.18848-.06762,1.6228-.12683,3.043-.18176,4.36157-.05481,1.3186-.10559,2.53589-.15625,3.75293-.05066,1.21728-.10144,2.43432-.15637,3.75293s-.114,2.73877-.18164,4.36181c1.65478.06885,3.03381.12818,4.3208.18457,1.287.05616,2.48193.10962,3.76892.16846,1.28686.05884,2.66565.1228,4.32007.20191-.09,1.88134-.15747,3.29223-.225,4.70336-.06738,1.41089-.13489,2.82178-.22485,4.70313-1.64673-.07886-3.01917-.14258-4.3-.20117-1.28088-.05835-2.47034-.11158-3.75122-.16773-1.281-.05615-2.65344-.11523-4.30054-.18384-.083,1.99415-.15576,3.73877-.22326,5.35889-.06739,1.62012-.12977,3.11572-.192,4.61109-.06226,1.4956-.12451,2.991-.192,4.61108s-.14013,3.365-.22314,5.35889a8.64255,8.64255,0,0,0,.61474,3.99658,4.36324,4.36324,0,0,0,2.01758,2.11645,7.383,7.383,0,0,0,3.04907.70386,10.3684,10.3684,0,0,0,3.1399-.35449,12.99785,12.99785,0,0,0,2.6134-1.02368c.54053,1.58276.9447,2.77,1.34827,3.95727.40356,1.1875.80652,2.37476,1.34216,3.95825a18.28683,18.28683,0,0,1-3.52148,1.38379,28.08382,28.08382,0,0,1-4.33863.87232,28.81534,28.81534,0,0,1-4.69592.19385,27.26645,27.26645,0,0,1-5.95752-.8396,13.64722,13.64722,0,0,1-4.11206-1.80689,9.39048,9.39048,0,0,1-2.59827-2.59863,10.80872,10.80872,0,0,1-1.41211-3.209,18.33877,18.33877,0,0,1-.55212-3.63379C449.32861,48.54541,449.34033,47.24438,449.38623,45.93506Z"/><path class="a" d="M483.77332,17.67871c1.43957.07422,2.63916.1377,3.75878.19751,1.11951.06006,2.15918.11646,3.27869.17822s2.31885.12867,3.75818.21094c.15637,1.25464.27344,2.196.39026,3.13721s.23352,1.88232.38855,3.1372a12.76316,12.76316,0,0,1,3.22668-4.03247,12.33792,12.33792,0,0,1,8.57276-2.78369,20.07116,20.07116,0,0,1,4.09155.6958,14.12394,14.12394,0,0,1,3.46985,1.44117c-.3678,1.32617-.67395,2.43139-.95935,3.46313-.2854,1.03149-.55005,1.98926-.83484,3.021s-.58948,2.1372-.95459,3.46386A19.88814,19.88814,0,0,0,508.81824,28.5a14.9399,14.9399,0,0,0-3.5398-.67944,8.24688,8.24688,0,0,0-4.09765.72534,6.93537,6.93537,0,0,0-2.85608,2.51831,8.84355,8.84355,0,0,0-1.32,3.95776c-.10644,1.81128-.204,3.47144-.29553,5.031-.09168,1.55957-.17737,3.01855-.26013,4.42724-.08264,1.4087-.16248,2.76709-.24231,4.12549-.07971,1.3584-.15955,2.7168-.24231,4.12549s-.16846,2.86768-.26,4.42725c-.09168,1.55957-.18921,3.21972-.29553,5.031-1.72889-.10156-3.16968-.18408-4.51453-.26s-2.59363-.145-3.9386-.21826-2.786-.15039-4.51526-.24048c.09412-1.80761.1825-3.50219.26636-5.11206.084-1.60986.16345-3.135.24-4.60351.07654-1.46875.15015-2.88086.22229-4.26465l.2135-4.09522c.07068-1.35571.14136-2.71118.2135-4.09521.07214-1.38379.14575-2.7959.22229-4.26465.07654-1.46851.156-2.99365.24-4.60352.08386-1.60986.17224-3.30419.26648-5.11181-.10962-1.52832-.19214-2.67456-.2749-3.8208S483.8844,19.20679,483.77332,17.67871Z"/><path class="a" d="M514.6925,42.54712a28.96092,28.96092,0,0,1,.6941-4.65332,26.55766,26.55766,0,0,1,1.4292-4.37427,24.05355,24.05355,0,0,1,2.15161-3.97241,21.98144,21.98144,0,0,1,2.86-3.44678A20.85212,20.85212,0,0,1,525.38,23.3042a21.1012,21.1012,0,0,1,4.22742-2.02051,23.18407,23.18407,0,0,1,4.88184-1.11938,27.666,27.666,0,0,1,5.51294-.092,25.086,25.086,0,0,1,5.26037.95239,16.41516,16.41516,0,0,1,4.22144,1.91479,11.63506,11.63506,0,0,1,3.04883,2.83423,10.61465,10.61465,0,0,1,1.747,3.7124,13.571,13.571,0,0,1,.31982,4.55054,13.14,13.14,0,0,1-1.32129,4.82739,11.8142,11.8142,0,0,1-2.75256,3.54224,15.63786,15.63786,0,0,1-3.82654,2.44751,24.50231,24.50231,0,0,1-4.54785,1.54272,38.43275,38.43275,0,0,1-4.91919.82544c-1.66272.17627-3.32923.26392-4.941.293-1.61182.0293-3.16883-.00024-4.61255-.05835a11.77409,11.77409,0,0,0,.66113,3.44458,9.4489,9.4489,0,0,0,1.76746,3.04126,9.16925,9.16925,0,0,0,3.03088,2.26392,12.76768,12.76768,0,0,0,4.45618,1.115,19.19434,19.19434,0,0,0,4.73034-.21631,22.14232,22.14232,0,0,0,4.03846-1.092,25.71433,25.71433,0,0,0,3.15735-1.42993c.60791,1.6477,1.06225,2.88379,1.51586,4.11987.45374,1.23633.90662,2.47241,1.50843,4.12109a12.09455,12.09455,0,0,1-1.8468.96314,28.27092,28.27092,0,0,1-3.70093,1.31006,33.33174,33.33174,0,0,1-5.25952,1.02539,35.13177,35.13177,0,0,1-11.93079-.731,24.37885,24.37885,0,0,1-4.511-1.55713A18.93026,18.93026,0,0,1,521.6322,61.614a16.75958,16.75958,0,0,1-2.85571-2.82812,17.31335,17.31335,0,0,1-2.08582-3.37891,20.35726,20.35726,0,0,1-1.35241-3.87231,25.907,25.907,0,0,1-.65454-4.3064A33.96428,33.96428,0,0,1,514.6925,42.54712Zm28.32264-9.23047a4.19717,4.19717,0,0,0-1.04236-3.33545,5.11507,5.11507,0,0,0-3.4043-1.44311,9.23578,9.23578,0,0,0-4.2417.605,8.83455,8.83455,0,0,0-3.22815,2.28222,11.96974,11.96974,0,0,0-2.1803,3.53443,16.844,16.844,0,0,0-1.10388,4.36328,35.75717,35.75717,0,0,0,4.4469-.033,26.06632,26.06632,0,0,0,4.87842-.7688,10.99429,10.99429,0,0,0,4.01709-1.86694A4.67619,4.67619,0,0,0,543.01514,33.31665Z"/><path class="a" d="M602.494,26.03418a36.26592,36.26592,0,0,1,5.26135.95776,25.52455,25.52455,0,0,1,4.45386,1.60669,19.1292,19.1292,0,0,1,3.64819,2.2461,16.26862,16.26862,0,0,1,2.84546,2.87622,16.50541,16.50541,0,0,1,2.04736,3.49829,19.87326,19.87326,0,0,1,1.25538,4.11377,26.94413,26.94413,0,0,1,.47094,4.7229,41.03232,41.03232,0,0,1-1.31762,10.64331,29.19113,29.19113,0,0,1-1.616,4.56055,22.51591,22.51591,0,0,1-2.1792,3.7976,18.51828,18.51828,0,0,1-2.70386,3.02735,16.83585,16.83585,0,0,1-3.19189,2.25049,17.35688,17.35688,0,0,1-3.64527,1.46728,20.07129,20.07129,0,0,1-4.06457.67725,25.18045,25.18045,0,0,1-4.45191-.11939,20.88549,20.88549,0,0,1-4.56262-1.07129,19.27331,19.27331,0,0,1-3.72131-1.75146c-.20081,1.864-.37659,3.49487-.5398,5.00928s-.31384,2.91235-.46447,4.3103l-.46448,4.31054c-.16321,1.51441-.339,3.14527-.5398,5.00928-1.69543-.18286-3.10852-.333-4.42749-.47217-1.319-.13891-2.5437-.26684-3.86291-.40332-1.31909-.13647-2.73267-.28149-4.429-.45312.1864-1.84326.36573-3.616.53894-5.32837.17322-1.71265.34034-3.36523.50245-4.96851.16223-1.60351.31945-3.158.47277-4.67407.15332-1.51636.30286-2.99438.44959-4.44507s.29065-2.87426.433-4.28125c.14234-1.40722.283-2.79785.4231-4.18335.14-1.38525.27966-2.76513.41968-4.15039.14013-1.38525.28076-2.77612.42309-4.1831.14234-1.40723.28626-2.83057.433-4.2815.14673-1.45068.29627-2.92871.44959-4.44482.15332-1.51636.31055-3.07056.47278-4.67407.16211-1.60352.32922-3.25611.50244-4.96851.17322-1.71265.35254-3.48511.53894-5.32861,1.51526-.281,3.03748-.50733,4.54175-.68531,1.50439-.17822,2.99072-.30761,4.4342-.395s2.84412-.13257,4.17713-.14185c1.33288-.00952,2.59814.01685,3.771.07227C600.45056,25.84253,601.53088,25.927,602.494,26.03418ZM608.939,50.50269a30.39077,30.39077,0,0,0,.19-5.60572,13.77072,13.77072,0,0,0-1.04932-4.61474,7.77718,7.77718,0,0,0-2.63574-3.27735,9.63,9.63,0,0,0-4.56372-1.58862,21.79274,21.79274,0,0,0-3.33008-.09473,26.16088,26.16088,0,0,0-2.87134.28638c-.21326,1.979-.40527,3.76025-.58435,5.42261-.1792,1.66235-.34558,3.206-.50757,4.7102l-.482,4.4729c-.16211,1.50415-.32837,3.04785-.50757,4.71021-.1792,1.6626-.3711,3.4436-.58435,5.42285a9.10694,9.10694,0,0,0,3.1156,1.66309,18.70091,18.70091,0,0,0,3.83716.83667,7.71626,7.71626,0,0,0,3.84216-.46338,7.18859,7.18859,0,0,0,2.92688-2.2815,13.13037,13.13037,0,0,0,2.03711-3.99536A28.19269,28.19269,0,0,0,608.939,50.50269Z"/><path class="a" d="M628.24927,53.52979a28.9269,28.9269,0,0,1,.96-4.60547,26.5402,26.5402,0,0,1,1.67895-4.28516,24.01875,24.01875,0,0,1,2.37818-3.84228,21.97464,21.97464,0,0,1,3.05639-3.27662,20.86176,20.86176,0,0,1,3.71167-2.58764,21.1559,21.1559,0,0,1,4.34229-1.77417,23.26293,23.26293,0,0,1,4.94507-.83692,27.75224,27.75224,0,0,1,5.51733.2251,25.17654,25.17654,0,0,1,5.20557,1.25366,16.46887,16.46887,0,0,1,4.11157,2.1543,11.655,11.655,0,0,1,2.88672,3.00513,10.60981,10.60981,0,0,1,1.53467,3.80688,13.5573,13.5573,0,0,1,.05981,4.56177A13.12857,13.12857,0,0,1,667.04,52.07178a11.8157,11.8157,0,0,1-2.95508,3.37793,15.66943,15.66943,0,0,1-3.96631,2.22339,24.56534,24.56534,0,0,1-4.6355,1.27856,38.54921,38.54921,0,0,1-4.96606.54126c-1.67261.08032-3.344.072-4.957.0083-1.61328-.06348-3.16846-.18237-4.60864-.32349a11.767,11.767,0,0,0,.46411,3.47681,9.451,9.451,0,0,0,1.59326,3.13818,9.18039,9.18039,0,0,0,2.90112,2.43433,12.80666,12.80666,0,0,0,4.3916,1.36963,19.27328,19.27328,0,0,0,4.74244.05615,22.2069,22.2069,0,0,0,4.10058-.85815,25.717,25.717,0,0,0,3.239-1.24585c.51368,1.67993.89747,2.94018,1.28028,4.20044.38306,1.26025.76514,2.52051,1.273,4.20117a12.1435,12.1435,0,0,1-1.9021.85522,28.3257,28.3257,0,0,1-3.77564,1.095,33.389,33.389,0,0,1-5.31787.72095,35.22526,35.22526,0,0,1-11.88745-1.41577,24.43331,24.43331,0,0,1-4.42114-1.814,18.96838,18.96838,0,0,1-3.53589-2.42725,16.80088,16.80088,0,0,1-2.69312-2.98755,17.327,17.327,0,0,1-1.89209-3.49341,20.33923,20.33923,0,0,1-1.13061-3.9436,25.88554,25.88554,0,0,1-.4082-4.33716A33.92826,33.92826,0,0,1,628.24927,53.52979Zm28.84521-7.58692a4.194,4.194,0,0,0-.85156-3.39014,5.12954,5.12954,0,0,0-3.32129-1.63647,9.2614,9.2614,0,0,0-4.27588.36011,8.84753,8.84753,0,0,0-3.35815,2.09277,11.9722,11.9722,0,0,0-2.38208,3.40332,16.833,16.833,0,0,0-1.353,4.293,35.91559,35.91559,0,0,0,4.448.22266,26.1348,26.1348,0,0,0,4.92163-.48706,11.00933,11.00933,0,0,0,4.12353-1.63306A4.67218,4.67218,0,0,0,657.09448,45.94287Z"/><path class="a" d="M673.71533,66.419c.29175-1.94825.55908-3.73389.8103-5.41138s.48609-3.24683.7129-4.762c.22705-1.51514.4458-2.97632.66455-4.43726.21875-1.46118.4375-2.92212.6643-4.43726.22681-1.51538.46192-3.08447.71314-4.762.251-1.67773.51831-3.46338.81006-5.41138,1.75488.2627,3.21679.48365,4.5813.69117s2.63134.40161,3.9956.61181c1.364.21021,2.82568.43677,4.5791.71118-.28515,1.8208-.54614,3.49-.79175,5.05811-.24536,1.56811-.47485,3.03491-.69653,4.45117s-.4353,2.782-.64892,4.14771c-.21387,1.36572-.4275,2.73144-.64917,4.1477s-.45118,2.88306-.69654,4.45117-.50659,3.23731-.7915,5.05811a16.89286,16.89286,0,0,0-.24439,4.23,5.00669,5.00669,0,0,0,1.29883,3.093,6.3377,6.3377,0,0,0,3.687,1.64746,7.58734,7.58734,0,0,0,3.97657-.45,8.181,8.181,0,0,0,3.15234-2.21118,6.6688,6.6688,0,0,0,1.604-3.27857c.30689-1.87549.58838-3.595.85254-5.2102.26441-1.61524.51148-3.12623.75025-4.585.23877-1.459.46875-2.86572.699-4.27246.23023-1.407.46045-2.81372.699-4.2727.23877-1.45874.48608-2.96973.75024-4.585s.54565-3.33472.85254-5.21021c1.75195.28662,3.21191.52759,4.57422.75366s2.62719.4375,3.98926.66626,2.82128.47535,4.572.77369c-.30274,1.77563-.58643,3.44043-.856,5.022-.26929,1.58154-.52466,3.07983-.77051,4.52246-.24585,1.44287-.48242,2.83008-.71411,4.1897-.23144,1.35937-.4585,2.69116-.68555,4.023-.2268,1.33178-.45385,2.66357-.68554,4.02319s-.468,2.74683-.71387,4.1897c-.24585,1.44262-.50122,2.94091-.77075,4.52246s-.55322,3.24634-.85572,5.022c-.09545,1.56128-.16748,2.73218-.2395,3.90283-.07226,1.1709-.14453,2.3418-.24121,3.90283-1.44336-.24658-2.64624-.45043-3.769-.64013-1.123-.18946-2.16577-.36475-3.28882-.55225-1.12305-.18774-2.32666-.38794-3.77075-.62646.01562-1.92408.02319-2.88575.0376-4.80982-.14722-.02441-.221-.03662-.36817-.06079A14.17451,14.17451,0,0,1,696.438,82.9541a15.26175,15.26175,0,0,1-4.63843,1.20191,19.54,19.54,0,0,1-5.019-.16968,24.763,24.763,0,0,1-4.6106-1.15235,15.6479,15.6479,0,0,1-3.63965-1.854,11.60266,11.60266,0,0,1-2.66845-2.563,11.46713,11.46713,0,0,1-1.69532-3.27856,15.16328,15.16328,0,0,1-.71753-3.99829A23.664,23.664,0,0,1,673.71533,66.419Z"/><path class="a" d="M724.18774,74.81738c.3191-1.81054.62232-3.53076.9126-5.17822.29028-1.6477.56787-3.22314.8357-4.7439.26806-1.521.52661-2.98755.77856-4.418s.49756-2.82446.74023-4.20068c.24244-1.376.48169-2.73389.721-4.092.23926-1.35791.47852-2.71582.721-4.0918.24243-1.37622.488-2.77026.74023-4.20068.252-1.43042.5105-2.897.77832-4.418.26807-1.521.54566-3.09619.83594-4.7439s.59326-3.36767.91235-5.17822c1.76343.31055,3.23267.57178,4.60352.81641,1.37109.24487,2.64429.47363,4.01489.72119s2.83911.51416,4.60083.83667c-.29223,1.59766-.54809,2.99561-.78589,4.29394-.23754,1.2981-.45678,2.49659-.67627,3.69483-.21923,1.19824-.43847,2.39673-.67627,3.69482-.23754,1.2981-.4934,2.69629-.78588,4.294,1.63549.29931,2.99829.55078,4.27.78638,1.27148.23559,2.45239.45532,3.72363.69335s2.6333.49415,4.26733.80347c-.35034,1.85059-.61328,3.23853-.87622,4.62622-.26294,1.38794-.52588,2.77588-.87646,4.62622-1.62647-.3081-2.98194-.563-4.24756-.7998-1.26538-.23682-2.44043-.45557-3.7063-.69019-1.26563-.23437-2.62183-.48462-4.24976-.78247-.35937,1.96314-.67382,3.68091-.96557,5.27588-.292,1.595-.56153,3.06714-.83106,4.53955-.26928,1.47241-.53882,2.94458-.83081,4.53955s-.60644,3.31275-.96557,5.27588a8.61675,8.61675,0,0,0,.05639,4.0437,4.37241,4.37241,0,0,0,1.71216,2.37769,7.43644,7.43644,0,0,0,2.93359,1.1228,10.44091,10.44091,0,0,0,3.1709.08765,13.06691,13.06691,0,0,0,2.74073-.64844c.31762,1.64282.55493,2.875.79126,4.10718.23657,1.23242.47265,2.4646.7854,4.10766a18.42123,18.42123,0,0,1-3.69361.87818,28.267,28.267,0,0,1-4.43481.25757,29.02437,29.02437,0,0,1-4.69556-.46387,27.4778,27.4778,0,0,1-5.80591-1.66309,13.72862,13.72862,0,0,1-3.83667-2.36352,9.41309,9.41309,0,0,1-2.22192-2.93628,10.79312,10.79312,0,0,1-.958-3.375,18.25767,18.25767,0,0,1-.04443-3.67554C723.76807,77.39453,723.96045,76.10791,724.18774,74.81738Z"/><path class="b" d="M150.17224,162.48633c-.22461-1.82471-.438-3.55835-.64245-5.21875-.20435-1.66065-.39979-3.24805-.58851-4.78076-.18859-1.533-.3706-3.011-.548-4.4524-.17749-1.44165-.35046-2.84668-.52112-4.23339-.17077-1.387-.33923-2.75538-.50769-4.124s-.33691-2.73706-.50757-4.12378c-.17065-1.387-.34362-2.792-.52111-4.23364-.17737-1.44141-.35938-2.91943-.548-4.45239-.18872-1.53272-.38415-3.12012-.5885-4.78076-.20447-1.6604-.41785-3.394-.64246-5.21875,1.68323-.20728,3.08619-.37793,4.39563-.53589,1.30945-.15821,2.5254-.30371,3.83509-.45923s2.71313-.321,4.39734-.51709c.18774,1.61352.352,3.02515.50464,4.33594s.29345,2.52075.4342,3.73095c.14087,1.21.28174,2.41993.43433,3.73072s.31689,2.72241.50463,4.33593c1.56263-.18188,2.86487-.33178,4.08045-.47046,1.21557-.13891,2.34436-.26684,3.56006-.40332,1.21582-.13647,2.51843-.28173,4.08191-.4541.20617,1.87232.36084,3.27637.5155,4.68042.15454,1.40406.3092,2.80786.51538,4.68018-1.55566.17114-2.85193.31592-4.06165.45166-1.20971.136-2.333.26318-3.5426.40112-1.20959.13819-2.50537.28736-4.0603.46826.23071,1.98243.43262,3.717.62012,5.32764.1875,1.61084.36059,3.09766.53357,4.58447l.53369,4.58423c.18738,1.61084.38928,3.34546.62011,5.32788.29456,2.53125,1.078,4.09229,2.19239,4.97437a5.51752,5.51752,0,0,0,4.1853.90161,9.37617,9.37617,0,0,0,2.88623-.82471,12.00713,12.00713,0,0,0,2.28955-1.40625c.751,1.48169,1.313,2.59351,1.87451,3.70532.5614,1.11182,1.1222,2.22388,1.86841,3.70728a16.94322,16.94322,0,0,1-3.08484,1.89941,25.46955,25.46955,0,0,1-3.92859,1.51734,25.93385,25.93385,0,0,1-4.36889.90088,22.87365,22.87365,0,0,1-6.65418-.07154,10.9171,10.9171,0,0,1-4.4635-1.7854,9.49478,9.49478,0,0,1-2.7594-3.10913,15.87007,15.87007,0,0,1-1.53479-4.03418A38.67222,38.67222,0,0,1,150.17224,162.48633Z"/><path class="b" d="M177.71191,151.56836a34.24416,34.24416,0,0,1-.13659-6.20752,24.65432,24.65432,0,0,1,.92822-5.20435,19.72516,19.72516,0,0,1,1.82178-4.26928,18.02181,18.02181,0,0,1,2.54028-3.40186,18.60754,18.60754,0,0,1,3.08081-2.60181,20.70719,20.70719,0,0,1,3.442-1.87011,23.40277,23.40277,0,0,1,3.62292-1.20777,25.37194,25.37194,0,0,1,3.62366-.61547,30.09087,30.09087,0,0,1,3.27454-.14331,23.45433,23.45433,0,0,1,3.76806.34326,18.39972,18.39972,0,0,1,3.93885,1.144,15.59227,15.59227,0,0,1,3.78515,2.2561,16.06479,16.06479,0,0,1,3.30689,3.67725,21.41527,21.41527,0,0,1,2.5072,5.40552,34.71231,34.71231,0,0,1,1.3927,7.43969,37.81638,37.81638,0,0,1,.07153,5.79956,28.73859,28.73859,0,0,1-.78515,5.06983,22.8356,22.8356,0,0,1-1.55884,4.3435,19.50563,19.50563,0,0,1-2.25208,3.62134,18.31367,18.31367,0,0,1-2.86706,2.90406,18.95441,18.95441,0,0,1-3.40552,2.1914,21.21054,21.21054,0,0,1-3.8689,1.4834,24.9296,24.9296,0,0,1-4.25842.78027,25.22065,25.22065,0,0,1-4.89966.02271,19.00011,19.00011,0,0,1-4.39477-.94409,16.12853,16.12853,0,0,1-3.8429-1.93384,16.35751,16.35751,0,0,1-3.24206-2.94629,19.85347,19.85347,0,0,1-2.58973-3.9812,27.26589,27.26589,0,0,1-1.8833-5.03809A39.60507,39.60507,0,0,1,177.71191,151.56836Zm28.3429-2.75024a41.3493,41.3493,0,0,0-.96619-6.11817,15.81724,15.81724,0,0,0-1.74011-4.4436,6.841,6.841,0,0,0-2.688-2.61206,6.76616,6.76616,0,0,0-3.805-.62183,6.58177,6.58177,0,0,0-3.444,1.29907,7.3309,7.3309,0,0,0-2.20618,2.92383,13.97319,13.97319,0,0,0-1.03576,4.27417,27.332,27.332,0,0,0,.06176,5.35278,52.08926,52.08926,0,0,0,.84522,5.66773,21.103,21.103,0,0,0,1.59814,4.87573,8.27391,8.27391,0,0,0,2.70105,3.30152,6.16545,6.16545,0,0,0,4.15918.94946,6.49918,6.49918,0,0,0,3.46717-1.311,7.17778,7.17778,0,0,0,2.17028-3.02173,15.43509,15.43509,0,0,0,.983-4.56811A34.97049,34.97049,0,0,0,206.05481,148.81812Z"/><path class="b" d="M227.1344,154.44312c-.16-1.96314-.30676-3.76294-.44458-5.45362-.1377-1.69067-.2666-3.27221-.39111-4.79931-.12452-1.52686-.24451-2.99952-.36451-4.47193-.12-1.47265-.24-2.94507-.3645-4.47217s-.25342-3.10864-.39111-4.79931c-.13782-1.69068-.28455-3.49024-.44458-5.45362,1.67432-.13647,3.0697-.248,4.37219-.35131,1.30237-.103,2.512-.19776,3.81445-.2981,1.30262-.10059,2.69837-.207,4.3733-.33252.13757,1.83789.26379,3.52271.3822,5.10547.11853,1.58276.22937,3.06323.33642,4.49268.10706,1.42968.21021,2.8081.31348,4.18652.10315,1.37842.20642,2.75683.31335,4.18628.10706,1.42969.2179,2.91015.33643,4.49292.11853,1.58252.24463,3.26733.3822,5.10522a17.84565,17.84565,0,0,0,.70374,4.17676,5.05557,5.05557,0,0,0,1.87341,2.7229,5.756,5.756,0,0,0,3.7533.779,6.87916,6.87916,0,0,0,3.55859-1.32959,7.957,7.957,0,0,0,2.41431-2.86084,6.95075,6.95075,0,0,0,.75695-3.554c-.12878-1.89649-.24682-3.63477-.35778-5.26758-.11084-1.63306-.2146-3.16064-.3147-4.6355-.10022-1.47485-.19678-2.89721-.29334-4.31933-.09668-1.42237-.19323-2.84473-.29333-4.31958-.10022-1.47486-.204-3.00245-.31482-4.6355-.111-1.63281-.229-3.37134-.35779-5.26758,1.67566-.11377,3.072-.20654,4.37549-.292,1.30335-.0857,2.51367-.16382,3.81726-.24658,1.30347-.083,2.7002-.17066,4.37634-.2732.11011,1.79785.21351,3.4834.31165,5.08472.09814,1.60156.191,3.11841.28064,4.57935.08948,1.46093.17566,2.86547.26,4.24218.08435,1.37647.167,2.7251.24963,4.07349s.16529,2.697.24964,4.07349c.08435,1.3767.17053,2.78125.26,4.24218s.18249,2.97779.28064,4.5791.20141,3.28687.31164,5.085c.25366,1.54223.4436,2.69921.6333,3.8562.18982,1.15673.3794,2.31372.63172,3.8562-1.38037.084-2.53052.15552-3.604.2229-1.07336.06738-2.07019.13086-3.14355.2-1.07337.06934-2.22339.14429-3.60327.23608-.40686-1.87817-.61048-2.81689-1.01868-4.69458-.14087.00928-.21118.01416-.35193.02344a13.7399,13.7399,0,0,1-3.13574,3.54834,14.03391,14.03391,0,0,1-4.0011,2.21094,17.50853,17.50853,0,0,1-4.6521.95874,21.11214,21.11214,0,0,1-5.303-.21631,12.86445,12.86445,0,0,1-4.24084-1.5166,10.81947,10.81947,0,0,1-3.17957-2.82862,14.0404,14.0404,0,0,1-2.11474-4.15039A23.79221,23.79221,0,0,1,227.1344,154.44312Z"/><path class="b" d="M275.396,151.30713c-.10218-1.83545-.19922-3.57935-.29224-5.25-.0929-1.67041-.18188-3.26734-.2677-4.80933s-.16858-3.02881-.24927-4.479c-.08081-1.4502-.15942-2.86353-.23706-4.25879-.07764-1.395-.1543-2.77173-.231-4.14844s-.15332-2.75366-.231-4.14868-.15637-2.80859-.23706-4.25879-.16346-2.937-.24927-4.479c-.08594-1.542-.17481-3.13892-.26782-4.80957-.0929-1.67041-.19007-3.41431-.29224-5.25,1.6908-.094,3.09985-.17041,4.415-.24073,1.31519-.07006,2.5365-.134,3.85181-.20166,1.3153-.06738,2.72461-.13867,4.41589-.22168.07959,1.62232.14917,3.04175.21387,4.35987.06457,1.31811.12426,2.53491.184,3.75146.05969,1.2168.11938,2.4336.18408,3.75171s.13428,2.73755.21387,4.35962c1.56909-.0769,2.87671-.13916,4.09716-.19653,1.22046-.05713,2.35376-.10913,3.57435-.16431,1.22058-.05493,2.52832-.11279,4.09777-.17993.08069,1.88159.14112,3.293.20166,4.7041s.121,2.82251.20166,4.7041c-1.56164.06714-2.86291.12451-4.07751.1792-1.21448.05469-2.34229.10669-3.55676.16358s-2.51563.11889-4.07691.19555c.09778,1.99341.18335,3.73755.2627,5.35718l.22619,4.60986c.07337,1.49488.14661,2.99.22608,4.60962s.165,3.36377.26282,5.35718c.12487,2.54517.80163,4.15527,1.85339,5.10986a5.50562,5.50562,0,0,0,4.10986,1.17945,9.35708,9.35708,0,0,0,2.931-.62989,11.99842,11.99842,0,0,0,2.37622-1.25c.64942,1.52857,1.13513,2.6753,1.62036,3.82227s.96985,2.29395,1.61438,3.82373a16.8969,16.8969,0,0,1-3.20031,1.689,25.43989,25.43989,0,0,1-4.01612,1.25146,25.8638,25.8638,0,0,1-4.41357.60645,22.80867,22.80867,0,0,1-6.62549-.51636,10.89627,10.89627,0,0,1-4.32825-2.07984,9.49728,9.49728,0,0,1-2.542-3.28662,15.89624,15.89624,0,0,1-1.26025-4.12768A38.7866,38.7866,0,0,1,275.396,151.30713Z"/><path class="b" d="M322.76074,141.74927a33.55671,33.55671,0,0,1,.322-5.95825,25.1428,25.1428,0,0,1,1.26282-5.01856,20.5864,20.5864,0,0,1,2.0603-4.12671,18.76436,18.76436,0,0,1,5.9231-5.76587,20.36554,20.36554,0,0,1,3.5625-1.73413,22.25217,22.25217,0,0,1,3.76062-1.03271,23.61223,23.61223,0,0,1,3.8064-.38111,25.25851,25.25851,0,0,1,4.62463.31861,19.72627,19.72627,0,0,1,4.54407,1.311,17.4254,17.4254,0,0,1,4.23266,2.57276,19.10345,19.10345,0,0,1,3.69043,4.10229c-1.528,1.25952-2.67138,2.20557-3.81347,3.15259-1.14222.947-2.283,1.89477-3.80078,3.1604a18.77277,18.77277,0,0,0-2.56556-2.688,10.491,10.491,0,0,0-2.87512-1.75806,8.88923,8.88923,0,0,0-7.13269.32447,7.917,7.917,0,0,0-2.878,2.58984,12.35573,12.35573,0,0,0-1.77686,4.25342,23.90036,23.90036,0,0,0-.51941,5.90991,24.49047,24.49047,0,0,0,.74439,5.69312,13.0933,13.0933,0,0,0,1.97009,4.34472,8.52172,8.52172,0,0,0,3.25183,2.74805,10.11806,10.11806,0,0,0,4.59754.90576,13.20033,13.20033,0,0,0,3.176-.43921,15.39653,15.39653,0,0,0,3.14588-1.23974,26.14929,26.14929,0,0,0,3.33532-2.10132c.92286,1.6123,1.61316,2.822,2.30237,4.03222.68933,1.21,1.37757,2.42017,2.29273,4.03492a20.90245,20.90245,0,0,1-3.02051,2.0205,24.28318,24.28318,0,0,1-3.66187,1.63746,27.25937,27.25937,0,0,1-4.257,1.11962,30.4182,30.4182,0,0,1-4.80774.46778,27.65611,27.65611,0,0,1-4.632-.28369,21.62818,21.62818,0,0,1-4.13477-1.02954,18.19427,18.19427,0,0,1-3.61035-1.76319,17.05424,17.05424,0,0,1-3.05688-2.48462,18.0999,18.0999,0,0,1-2.47339-3.19336,21.46328,21.46328,0,0,1-1.85767-3.8894,27.38744,27.38744,0,0,1-1.20825-4.57178A36.234,36.234,0,0,1,322.76074,141.74927Z"/><path class="b" d="M378.90356,102.43848c.001,1.918.00184,3.59619.00269,5.15454.00073,1.55835.00159,2.99682.00232,4.4353s.00146,2.877.00232,4.4353c.00073,1.55835.00159,3.23658.00268,5.15454a13.341,13.341,0,0,1,3.19153-2.32519,15.97383,15.97383,0,0,1,3.83618-1.41577,18.20522,18.20522,0,0,1,4.21656-.46509,20.02845,20.02845,0,0,1,5.17346.64722,12.61515,12.61515,0,0,1,4.05261,1.87695A10.79789,10.79789,0,0,1,402.285,123.04a14.01241,14.01241,0,0,1,1.72388,4.32886,23.644,23.644,0,0,1,.52515,5.55444c-.02576,1.9812-.04932,3.79712-.07154,5.50317s-.04284,3.302-.06286,4.84278-.03931,3.02661-.05872,4.51245c-.01928,1.48584-.03857,2.97168-.05859,4.51269-.02,1.54078-.04077,3.13672-.06287,4.84253-.02221,1.70606-.04577,3.522-.07153,5.50318-1.63977-.02124-3.00623-.03711-4.28162-.05078s-2.45971-.02515-3.7351-.03614c-1.2754-.01123-2.642-.02173-4.28186-.03222.012-1.86036.02282-3.56568.03308-5.16748.01025-1.60206.01989-3.10059.02917-4.54737.00928-1.447.01819-2.842.0271-4.2373s.01782-2.79053.0271-4.23731c.00928-1.447.0188-2.94555.029-4.54736.01026-1.602.02124-3.30737.03308-5.16748a16.31443,16.31443,0,0,0-.3811-4.07617,4.98317,4.98317,0,0,0-1.64355-2.77735,5.58029,5.58029,0,0,0-3.56629-1.03637,7.54251,7.54251,0,0,0-3.90124,1.03686,7.31262,7.31262,0,0,0-2.64466,2.71509,7.64326,7.64326,0,0,0-.97107,3.75366c.001,1.8833.002,3.60962.00281,5.23145.00073,1.62182.00159,3.13891.00232,4.604.00073,1.46484.00147,2.8772.0022,4.2898s.00146,2.82519.00232,4.29c.00073,1.46484.00146,2.98193.00232,4.60375.00085,1.62159.00183,3.34815.0028,5.23145-1.64.00073-3.00671.00342-4.28222.00708-1.27564.00366-2.46009.00806-3.7356.01416-1.27551.00635-2.64221.01392-4.2821.02564-.01319-1.84742-.02576-3.62378-.038-5.34009s-.024-3.37256-.0354-4.97949c-.01147-1.60694-.02258-3.16456-.03332-4.68409-.01087-1.51953-.02136-3.00073-.03174-4.45483-.01025-1.45386-.02051-2.88037-.03052-4.29053-.01-1.4104-.0199-2.8042-.02978-4.19238-.00989-1.38843-.01966-2.77124-.02954-4.15967-.00989-1.38818-.01978-2.782-.02979-4.19238-.01013-1.41016-.02026-2.83667-.03052-4.29077-.01037-1.45386-.02087-2.93506-.03173-4.45459-.01075-1.51953-.02186-3.0774-.03333-4.68433-.01135-1.60693-.02319-3.26318-.0354-4.97949s-.02478-3.49268-.038-5.34033c1.69274-.012,3.10339-.02,4.41992-.02637,1.31665-.00635,2.53918-.011,3.85571-.01465C375.80017,102.44214,377.21082,102.43921,378.90356,102.43848Z"/><path class="b" d="M412.22412,142.803a38.04156,38.04156,0,0,1,.46814-5.43872,29.3783,29.3783,0,0,1,1.20862-4.877,23.38823,23.38823,0,0,1,1.94763-4.25854,19.93127,19.93127,0,0,1,2.68347-3.584,18.90642,18.90642,0,0,1,3.41443-2.85132,20.3176,20.3176,0,0,1,4.13843-2.06031,24.43628,24.43628,0,0,1,4.853-1.21044,31.75674,31.75674,0,0,1,5.5559-.3003c.76453.02271,1.75818.10132,2.92249.24829,1.16431.14722,2.49939.3628,3.94653.65967,1.447.29663,3.00623.67432,4.61866,1.14526,1.61254.47095,3.27819,1.03492,4.93835,1.70386-.07251,1.89429-.13989,3.65332-.20349,5.31568-.06372,1.66235-.12366,3.22827-.1814,4.73584-.05774,1.50781-.11316,2.95752-.168,4.38794-.05481,1.43066-.10876,2.84155-.16357,4.272s-.11035,2.88037-.16809,4.38794c-.05774,1.50781-.11768,3.07348-.18128,4.73608-.06372,1.66235-.131,3.42139-.20361,5.31568.10974,1.75048.19165,3.06347.27332,4.37646.08166,1.31274.1632,2.62573.27124,4.37622-1.39319-.05395-2.5542-.09741-3.63794-.13745-1.08362-.0398-2.09-.07593-3.17359-.114-1.08374-.03809-2.24487-.07813-3.6383-.12427-.22229-1.77075-.33387-2.65625-.5575-4.42676-.13977-.03906-.20959-.05859-.34936-.09741a13.82836,13.82836,0,0,1-2.95142,2.96582,12.88943,12.88943,0,0,1-3.90735,1.94409,15.48731,15.48731,0,0,1-4.91711.61914,21.33974,21.33974,0,0,1-5.13953-.72119,15.12268,15.12268,0,0,1-4.05676-1.76465,13.58824,13.58824,0,0,1-3.07984-2.6604,15.65576,15.65576,0,0,1-2.20483-3.40552,21.0814,21.0814,0,0,1-1.42993-3.99829,29.86261,29.86261,0,0,1-.75305-4.43725A41.5995,41.5995,0,0,1,412.22412,142.803Zm27.41394,6.80591c.05518-1.73389.10474-3.29444.151-4.751.04639-1.45654.08936-2.80908.13123-4.12671l.12451-3.9187c.04187-1.31787.085-2.67041.13123-4.12695s.09594-3.01709.151-4.751a12.03664,12.03664,0,0,0-2.39637-.74414,18.23153,18.23153,0,0,0-3.215-.37647,8.59985,8.59985,0,0,0-3.866.72413,8.00769,8.00769,0,0,0-2.85205,2.22192,12.28111,12.28111,0,0,0-1.93945,3.41357,21.64819,21.64819,0,0,0-1.13245,4.30127,35.4045,35.4045,0,0,0-.43335,4.88672,32.02706,32.02706,0,0,0,.23108,4.9878,15.08146,15.08146,0,0,0,1.14209,4.24877,7.27862,7.27862,0,0,0,2.36035,2.98438,6.88748,6.88748,0,0,0,3.89038,1.19824,8.26068,8.26068,0,0,0,4.003-.83179,6.52294,6.52294,0,0,0,2.56055-2.29052A6.01431,6.01431,0,0,0,439.63806,149.60889Z"/><path class="b" d="M462.7,120.47583c1.38977.0603,2.548.11206,3.62879.16089,1.08093.04907,2.08459.09521,3.1654.146s2.23889.106,3.62842.17383c.1289,1.04444.22546,1.82764.32178,2.61084s.1925,1.56641.32043,2.6106a16.5135,16.5135,0,0,1,2.69275-2.59424,15.14782,15.14782,0,0,1,3.21143-1.87427,16.02164,16.02164,0,0,1,3.73278-1.07861,19.47492,19.47492,0,0,1,4.25489-.20654,19.08272,19.08272,0,0,1,4.86816.86767,12.638,12.638,0,0,1,3.86072,2.011,10.89492,10.89492,0,0,1,2.75683,3.17114,13.68575,13.68575,0,0,1,1.56031,4.3501,22.31584,22.31584,0,0,1,.27612,5.54883c-.12756,1.99463-.24451,3.82275-.35437,5.54028-.11,1.71753-.21277,3.32422-.312,4.87573l-.29065,4.543c-.0957,1.49585-.19141,2.99194-.29065,4.54321s-.202,3.158-.31189,4.87549c-.10986,1.71729-.22681,3.54566-.35449,5.54029-1.62561-.104-2.98047-.18873-4.24512-.26685s-2.439-.14941-3.70361-.22485c-1.26477-.07544-2.61988-.15528-4.246-.24854.10522-1.83423.20178-3.51587.29248-5.09521.09069-1.57959.17541-3.05738.25732-4.48389l.23987-4.17822.23987-4.17823c.08191-1.42675.16674-2.90429.25744-4.48388s.18726-3.261.29248-5.09546a18.26633,18.26633,0,0,0-.14392-4.2544,5.19334,5.19334,0,0,0-1.47351-2.98413,5.46452,5.46452,0,0,0-3.547-1.27,7.78023,7.78023,0,0,0-4.07751.85572,7.3872,7.3872,0,0,0-2.82971,2.63842,7.88515,7.88515,0,0,0-1.17163,3.78248c-.09412,1.86938-.18055,3.58325-.2616,5.19287-.081,1.60986-.157,3.116-.23022,4.56982-.07312,1.4541-.1438,2.8562-.21448,4.2583-.07056,1.4021-.14124,2.8042-.21448,4.2583s-.149,2.96-.2301,4.56983c-.08118,1.60986-.16748,3.32348-.2616,5.19287-1.615-.0813-2.96094-.14722-4.21716-.20752-1.25635-.06055-2.42285-.11548-3.6792-.17334-1.25623-.05811-2.60242-.1189-4.21777-.18994.07812-1.78223.15136-3.45313.22106-5.04053.06958-1.5874.1355-3.09131.1991-4.53931.06348-1.44824.12451-2.84082.18433-4.20532.05993-1.3645.11853-2.70142.17712-4.03809.05872-1.33667.11731-2.67358.17713-4.03808.05981-1.36475.121-2.75708.18444-4.20532.06348-1.448.12952-2.95191.1991-4.53931s.14294-3.25855.22107-5.04077c-.10779-1.63062-.18909-2.85352-.27051-4.07642C462.891,123.32935,462.80933,122.10645,462.7,120.47583Z"/><path class="b" d="M510.307,178.12988a14.219,14.219,0,0,1,1.08423-4.56128,15.82354,15.82354,0,0,1,2.39489-3.90625,22.14031,22.14031,0,0,1,3.45288-3.32275,33.84359,33.84359,0,0,1,4.25513-2.80957,17.269,17.269,0,0,1-3.56946-1.09961,15.76882,15.76882,0,0,1-3.26892-1.90308,15.00585,15.00585,0,0,1-2.78222-2.748,15.81324,15.81324,0,0,1-2.10816-3.63477,19.06583,19.06583,0,0,1-1.24341-4.56421,25.78994,25.78994,0,0,1-.18432-5.53467,29.99712,29.99712,0,0,1,.78466-5.15795,23.22146,23.22146,0,0,1,1.56006-4.41944,19.40236,19.40236,0,0,1,2.27259-3.68066,17.9923,17.9923,0,0,1,2.91992-2.94116,18.67918,18.67918,0,0,1,3.50012-2.20069,21.238,21.238,0,0,1,4.01147-1.45874,25.5187,25.5187,0,0,1,4.45228-.71606,31.38547,31.38547,0,0,1,4.82128.02759c1.3241.1062,2.77759.28906,4.28968.54394,1.5122.25464,3.08313.58106,4.64209.97363s3.10608.85132,4.57068,1.36939a33.51636,33.51636,0,0,1,4.0769,1.7268c-.16077,1.79419-.31152,3.47632-.45471,5.07422-.14331,1.5979-.27893,3.11182-.40955,4.56958s-.25622,2.85938-.37939,4.23316c-.12305,1.37353-.24365,2.71924-.36426,4.0647-.12061,1.3457-.24121,2.6914-.36426,4.06494-.12317,1.37378-.24878,2.77539-.37939,4.23315s-.26636,2.97168-.40955,4.56958-.29394,3.27979-.45471,5.074c-.07715.86035-.20032,2.01562-.35449,3.261-.15406,1.24536-.33911,2.58106-.53992,3.80322-.20081,1.22193-.41736,2.33008-.63464,3.12012a30.23673,30.23673,0,0,1-1.562,5.27149,21.72857,21.72857,0,0,1-2.3418,4.36059,17.07971,17.07971,0,0,1-3.11743,3.38989,15.9369,15.9369,0,0,1-3.89185,2.36084,18.34807,18.34807,0,0,1-4.66833,1.27393,25.0133,25.0133,0,0,1-5.4502.13062,25.75689,25.75689,0,0,1-5.30847-.93653,15.61516,15.61516,0,0,1-4.07922-1.8291,10.74118,10.74118,0,0,1-2.84241-2.64575,9.8571,9.8571,0,0,1-1.59448-3.38428A12.548,12.548,0,0,1,510.307,178.12988ZM535.70557,151.052c.14636-1.76513.27453-3.30932.39355-4.74341s.22876-2.75781.33862-4.08178c.10987-1.32373.21973-2.64746.33863-4.08155.119-1.43408.24719-2.97827.39367-4.7434a11.59235,11.59235,0,0,0-2.46936-.86426,19.322,19.322,0,0,0-2.90979-.44141,9.338,9.338,0,0,0-4.12011.55347,8.79162,8.79162,0,0,0-3.35791,2.31763,12.18912,12.18912,0,0,0-2.36731,4.00512,20.467,20.467,0,0,0-1.15564,5.61646,34.29581,34.29581,0,0,0-.08387,4.50586,14.26231,14.26231,0,0,0,.79078,4.15722,6.96449,6.96449,0,0,0,2.227,3.14649,7.72567,7.72567,0,0,0,4.22876,1.479,7.62941,7.62941,0,0,0,3.68383-.57788,6.43172,6.43172,0,0,0,2.764-2.30347A8.1488,8.1488,0,0,0,535.70557,151.052Zm-1.51795,20.41968c.1272-1.53247.22278-2.68213.31824-3.83154s.19092-2.29883.31824-3.8313a45.71468,45.71468,0,0,0-5.39514,2.60791,24.59481,24.59481,0,0,0-4.21827,2.99853,13.546,13.546,0,0,0-2.82043,3.45508,9.65338,9.65338,0,0,0-1.20484,3.979,4.94843,4.94843,0,0,0,1.14979,4.0083,5.71846,5.71846,0,0,0,3.76855,1.48584,6.76723,6.76723,0,0,0,3.493-.54615,5.885,5.885,0,0,0,2.38684-2.14257,11.67971,11.67971,0,0,0,1.46887-3.51661A28.02571,28.02571,0,0,0,534.18762,171.47168Z"/><path class="b" d="M556.0575,149.90137a30.50128,30.50128,0,0,1,.79418-4.6355,27.75231,27.75231,0,0,1,1.48353-4.34155,24.67853,24.67853,0,0,1,2.15747-3.925,21.98605,21.98605,0,0,1,2.81457-3.38477,20.19648,20.19648,0,0,1,3.45337-2.7207,19.78348,19.78348,0,0,1,4.07153-1.93189,21.23491,21.23491,0,0,1,4.66651-1.01831,24.98661,24.98661,0,0,1,5.23559.021,22.64281,22.64281,0,0,1,4.965,1.05884,15.07318,15.07318,0,0,1,3.94971,1.99853,11.15132,11.15132,0,0,1,2.809,2.89356,10.76267,10.76267,0,0,1,1.54638,3.74463,14.24191,14.24191,0,0,1,.16626,4.55346,13.77212,13.77212,0,0,1-1.39941,4.79688,11.90993,11.90993,0,0,1-2.71839,3.48413,14.95925,14.95925,0,0,1-3.70373,2.36865,22.644,22.644,0,0,1-4.36035,1.44971,34.91621,34.91621,0,0,1-4.69055.7251c-1.58228.14233-3.16541.1958-4.69495.19189-1.52942-.00391-3.00525-.06519-4.37268-.15283a12.28052,12.28052,0,0,0,.52478,3.45532,9.482,9.482,0,0,0,1.58569,3.07544,8.64965,8.64965,0,0,0,2.80689,2.324,11.54,11.54,0,0,0,4.19226,1.20484,17.314,17.314,0,0,0,4.49219-.12036,20.30254,20.30254,0,0,0,3.86254-1.01,24.01845,24.01845,0,0,0,3.03748-1.36548c.527,1.65845.92065,2.90259,1.3136,4.14673.39282,1.24414.785,2.48852,1.30591,4.14746a11.42511,11.42511,0,0,1-1.7804.92554,26.10467,26.10467,0,0,1-3.5487,1.2351,30.32064,30.32064,0,0,1-5.01783.91895,30.70628,30.70628,0,0,1-6.1947-.02344,29.93066,29.93066,0,0,1-5.75049-1.14307,20.86636,20.86636,0,0,1-4.62951-2.04663,16.78058,16.78058,0,0,1-3.56983-2.86963,16.45572,16.45572,0,0,1-2.568-3.6101,19.39882,19.39882,0,0,1-1.62134-4.26636,25.592,25.592,0,0,1-.72778-4.83594A35.10968,35.10968,0,0,1,556.0575,149.90137Zm27.14135-8.64038a4.31222,4.31222,0,0,0-.88965-3.354,4.6991,4.6991,0,0,0-3.1875-1.51123,8.39341,8.39341,0,0,0-4.04321.51782,8.49933,8.49933,0,0,0-3.13086,2.21412,12.21294,12.21294,0,0,0-2.17309,3.48706,17.67663,17.67663,0,0,0-1.176,4.3374,32.26268,32.26268,0,0,0,4.21961.05859,23.67315,23.67315,0,0,0,4.65087-.6687,10.30353,10.30353,0,0,0,3.86707-1.78393A4.78727,4.78727,0,0,0,583.19885,141.261Z"/><path class="b" d="M602.26074,131.66724c1.35974.15918,2.49292.29345,3.5503.41943,1.05749.126,2.0393.24365,3.09667.37134s2.19.26538,3.54908.43188c.063,1.26123.10986,2.20728.15674,3.15308.04663.9458.09326,1.8916.15478,3.15283a12.77923,12.77923,0,0,1,3.334-3.83325,11.60806,11.60806,0,0,1,4.083-1.99243,11.14725,11.14725,0,0,1,4.23658-.28076,18.1391,18.1391,0,0,1,3.833.93432,12.975,12.975,0,0,1,3.19263,1.64111c-.4397,1.30127-.80542,2.38575-1.14673,3.39795-.34106,1.01221-.65771,1.95215-.99805,2.9646-.34057,1.01245-.70507,2.09717-1.14209,3.39893a18.20167,18.20167,0,0,0-2.88916-1.48926,13.51637,13.51637,0,0,0-3.31005-.885,7.52517,7.52517,0,0,0-3.93433.48267,6.76487,6.76487,0,0,0-2.87866,2.34375,9.202,9.202,0,0,0-1.52027,3.87012c-.22412,1.80053-.42944,3.45092-.62207,5.00122-.19287,1.55053-.37329,3.00073-.5476,4.40112-.17408,1.40039-.342,2.75073-.51,4.10107-.168,1.3501-.33594,2.70044-.51,4.10083-.17432,1.40039-.35474,2.85059-.54761,4.40113-.19287,1.55029-.39795,3.20068-.62207,5.00122-1.63037-.20288-2.9895-.36988-4.25794-.52466-1.26855-.155-2.44653-.29761-3.71521-.44971-1.26867-.15234-2.62817-.31445-4.25964-.50635.21155-1.7976.40979-3.48266.59827-5.08374.18835-1.60083.36682-3.11743.53869-4.57812.17188-1.46045.33716-2.86475.49915-4.241s.32056-2.72436.47925-4.07251.31738-2.69629.47937-4.07251c.16186-1.37622.32715-2.78052.499-4.24121.17188-1.46045.35046-2.97705.53882-4.57812.18848-1.60083.38672-3.28614.59827-5.0835-.00049-1.53149-.00123-2.67993-.0022-3.82837C602.26379,134.34692,602.2627,133.19849,602.26074,131.66724Z"/></svg>